<svg id="visual" viewBox="0 0 960 450" width="960" height="450" xmlns="http://www.w3.org/2000/svg" xmlns:xlink="http://www.w3.org/1999/xlink" version="1.1"><rect x="0" y="0" width="960" height="450" fill="#000000"></rect><path d="M0 341L48 336L96 344L144 342L192 351L240 369L288 341L336 364L384 349L432 342L480 358L528 342L576 334L624 361L672 344L720 357L768 363L816 345L864 365L912 338L960 364L960 451L912 451L864 451L816 451L768 451L720 451L672 451L624 451L576 451L528 451L480 451L432 451L384 451L336 451L288 451L240 451L192 451L144 451L96 451L48 451L0 451Z" fill="#0d00a4"></path><path d="M0 359L48 371L96 359L144 381L192 364L240 354L288 380L336 380L384 381L432 357L480 372L528 352L576 363L624 367L672 359L720 360L768 362L816 358L864 354L912 363L960 381L960 451L912 451L864 451L816 451L768 451L720 451L672 451L624 451L576 451L528 451L480 451L432 451L384 451L336 451L288 451L240 451L192 451L144 451L96 451L48 451L0 451Z" fill="#7f0092"></path><path d="M0 383L48 381L96 369L144 372L192 377L240 368L288 389L336 373L384 369L432 392L480 374L528 385L576 366L624 369L672 369L720 376L768 370L816 389L864 368L912 368L960 386L960 451L912 451L864 451L816 451L768 451L720 451L672 451L624 451L576 451L528 451L480 451L432 451L384 451L336 451L288 451L240 451L192 451L144 451L96 451L48 451L0 451Z" fill="#b0007e"></path><path d="M0 403L48 388L96 381L144 382L192 403L240 382L288 398L336 396L384 382L432 391L480 399L528 394L576 385L624 398L672 383L720 380L768 403L816 391L864 393L912 399L960 402L960 451L912 451L864 451L816 451L768 451L720 451L672 451L624 451L576 451L528 451L480 451L432 451L384 451L336 451L288 451L240 451L192 451L144 451L96 451L48 451L0 451Z" fill="#cf006c"></path><path d="M0 414L48 401L96 405L144 413L192 397L240 400L288 396L336 417L384 400L432 399L480 409L528 404L576 396L624 407L672 396L720 396L768 407L816 395L864 408L912 405L960 399L960 451L912 451L864 451L816 451L768 451L720 451L672 451L624 451L576 451L528 451L480 451L432 451L384 451L336 451L288 451L240 451L192 451L144 451L96 451L48 451L0 451Z" fill="#e70055"></path><path d="M0 419L48 425L96 420L144 424L192 422L240 426L288 413L336 423L384 414L432 423L480 428L528 427L576 426L624 427L672 427L720 413L768 412L816 418L864 421L912 413L960 410L960 451L912 451L864 451L816 451L768 451L720 451L672 451L624 451L576 451L528 451L480 451L432 451L384 451L336 451L288 451L240 451L192 451L144 451L96 451L48 451L0 451Z" fill="#f70038"></path><path d="M0 440L48 431L96 429L144 424L192 433L240 429L288 429L336 424L384 431L432 426L480 432L528 438L576 424L624 429L672 433L720 431L768 426L816 426L864 425L912 436L960 438L960 451L912 451L864 451L816 451L768 451L720 451L672 451L624 451L576 451L528 451L480 451L432 451L384 451L336 451L288 451L240 451L192 451L144 451L96 451L48 451L0 451Z" fill="#ff0505"></path></svg>