<svg id="visual" viewBox="0 0 960 540" width="960" height="540" xmlns="http://www.w3.org/2000/svg" xmlns:xlink="http://www.w3.org/1999/xlink" version="1.1"><rect x="0" y="0" width="960" height="540" fill="#A1A1A1"></rect><path d="M0 410L48 404L96 412L144 410L192 421L240 443L288 410L336 437L384 419L432 410L480 430L528 410L576 401L624 433L672 413L720 428L768 435L816 414L864 438L912 406L960 437L960 541L912 541L864 541L816 541L768 541L720 541L672 541L624 541L576 541L528 541L480 541L432 541L384 541L336 541L288 541L240 541L192 541L144 541L96 541L48 541L0 541Z" fill="#0d00a4"></path><path d="M0 431L48 446L96 431L144 458L192 437L240 425L288 456L336 457L384 458L432 429L480 446L528 422L576 435L624 441L672 431L720 432L768 434L816 429L864 425L912 435L960 458L960 541L912 541L864 541L816 541L768 541L720 541L672 541L624 541L576 541L528 541L480 541L432 541L384 541L336 541L288 541L240 541L192 541L144 541L96 541L48 541L0 541Z" fill="#7f0092"></path><path d="M0 460L48 458L96 443L144 447L192 452L240 441L288 467L336 448L384 443L432 470L480 449L528 462L576 439L624 443L672 443L720 452L768 444L816 467L864 442L912 442L960 464L960 541L912 541L864 541L816 541L768 541L720 541L672 541L624 541L576 541L528 541L480 541L432 541L384 541L336 541L288 541L240 541L192 541L144 541L96 541L48 541L0 541Z" fill="#b0007e"></path><path d="M0 483L48 466L96 457L144 459L192 484L240 458L288 477L336 476L384 458L432 470L480 479L528 473L576 462L624 478L672 460L720 456L768 484L816 470L864 472L912 479L960 483L960 541L912 541L864 541L816 541L768 541L720 541L672 541L624 541L576 541L528 541L480 541L432 541L384 541L336 541L288 541L240 541L192 541L144 541L96 541L48 541L0 541Z" fill="#cf006c"></path><path d="M0 496L48 481L96 486L144 495L192 477L240 480L288 475L336 500L384 481L432 479L480 491L528 485L576 475L624 489L672 475L720 476L768 489L816 474L864 489L912 487L960 479L960 541L912 541L864 541L816 541L768 541L720 541L672 541L624 541L576 541L528 541L480 541L432 541L384 541L336 541L288 541L240 541L192 541L144 541L96 541L48 541L0 541Z" fill="#e70055"></path><path d="M0 503L48 511L96 505L144 509L192 506L240 512L288 495L336 508L384 497L432 507L480 514L528 513L576 511L624 513L672 513L720 496L768 495L816 502L864 506L912 495L960 493L960 541L912 541L864 541L816 541L768 541L720 541L672 541L624 541L576 541L528 541L480 541L432 541L384 541L336 541L288 541L240 541L192 541L144 541L96 541L48 541L0 541Z" fill="#f70038"></path><path d="M0 529L48 517L96 515L144 509L192 519L240 515L288 515L336 510L384 517L432 512L480 519L528 526L576 510L624 515L672 520L720 517L768 511L816 511L864 510L912 524L960 526L960 541L912 541L864 541L816 541L768 541L720 541L672 541L624 541L576 541L528 541L480 541L432 541L384 541L336 541L288 541L240 541L192 541L144 541L96 541L48 541L0 541Z" fill="#ff0505"></path></svg>